<svg id="Layer_2" data-name="Layer 2" xmlns="http://www.w3.org/2000/svg" viewBox="0 0 178.46 154.59"><defs><style>.cls-1,.cls-2{fill:none;stroke:#000;stroke-miterlimit:10;}.cls-1{stroke-width:0.28px;}</style></defs><title>mosaic</title><path class="cls-1" d="M1122.87,744.05c1.05,1.76,1.93,3.15,2.7,4.59a1.55,1.55,0,0,1-.12,1.27c-4,7.18-8.13,14.34-12.18,21.52a2,2,0,0,1-2,1.14c-1.4-.07-2.8,0-4.65,0Z" transform="translate(-1037.78 -737.28)"/><path class="cls-1" d="M1064.47,784.14c2,0,3.69-.1,5.33,0a1.57,1.57,0,0,1,1,.74c4.2,7.09,8.36,14.21,12.56,21.3a2,2,0,0,1,0,2.34c-.76,1.17-1.42,2.42-2.35,4C1075.47,803,1070.06,793.71,1064.47,784.14Z" transform="translate(-1037.78 -737.28)"/><path class="cls-1" d="M1070,854.72c1-1.79,1.76-3.25,2.62-4.63a1.56,1.56,0,0,1,1.16-.54c8.25-.09,16.5-.13,24.74-.22a2,2,0,0,1,2,1.2c.64,1.25,1.39,2.44,2.31,4Z" transform="translate(-1037.78 -737.28)"/><path class="cls-1" d="M1133.94,885.22c-1-1.76-1.93-3.15-2.7-4.59a1.55,1.55,0,0,1,.12-1.27c4-7.18,8.13-14.34,12.18-21.52a2,2,0,0,1,2-1.14c1.4.07,2.81,0,4.66,0Z" transform="translate(-1037.78 -737.28)"/><path class="cls-1" d="M1192.34,845.13c-2,0-3.69.1-5.33,0a1.6,1.6,0,0,1-1-.74c-4.2-7.09-8.36-14.21-12.56-21.3a2,2,0,0,1,0-2.34c.76-1.17,1.41-2.42,2.34-4Z" transform="translate(-1037.78 -737.28)"/><path class="cls-1" d="M1186.81,774.55c-1,1.79-1.76,3.25-2.63,4.63a1.54,1.54,0,0,1-1.16.54c-8.25.09-16.5.13-24.74.22a2,2,0,0,1-2-1.2c-.64-1.25-1.39-2.44-2.31-4Z" transform="translate(-1037.78 -737.28)"/><path class="cls-1" d="M1149.29,783.18l-12.84-21.66c2.11,0,3.82,0,5.53,0,.28,0,.64.38.81.67,4.48,7.52,8.93,15,13.51,22.77l-11.54,6.73c0-2,0-3.61,0-5.23a1.67,1.67,0,0,1,.78-1C1146.75,784.69,1148,784,1149.29,783.18Z" transform="translate(-1037.78 -737.28)"/><path class="cls-1" d="M1111.59,780.83l-25.19.28c1-1.83,1.88-3.32,2.79-4.77a1.32,1.32,0,0,1,1-.36c8.75-.12,17.5-.21,26.48-.31,0,4.39,0,8.68.07,13.36-1.72-1-3.16-1.77-4.52-2.65a1.69,1.69,0,0,1-.49-1.19C1111.63,783.79,1111.63,782.38,1111.59,780.83Z" transform="translate(-1037.78 -737.28)"/><path class="cls-1" d="M1090.71,812.29l-12.36,21.94c-1.06-1.83-1.94-3.29-2.74-4.8a1.34,1.34,0,0,1,.18-1c4.28-7.63,8.57-15.25,13-23.07l11.6,6.62c-1.72,1-3.1,1.84-4.55,2.58a1.7,1.7,0,0,1-1.28-.17C1093.28,813.73,1092.07,813,1090.71,812.29Z" transform="translate(-1037.78 -737.28)"/><path class="cls-1" d="M1107.52,846.09l12.84,21.66c-2.11,0-3.82,0-5.53,0-.28,0-.64-.38-.81-.67-4.48-7.52-8.93-15-13.51-22.77l11.54-6.74c0,2,0,3.62,0,5.24a1.67,1.67,0,0,1-.78,1C1110.06,844.58,1108.84,845.28,1107.52,846.09Z" transform="translate(-1037.78 -737.28)"/><path class="cls-1" d="M1145.22,848.44l25.19-.28c-1.05,1.83-1.88,3.32-2.79,4.77a1.32,1.32,0,0,1-1,.36c-8.75.12-17.5.21-26.48.31,0-4.39,0-8.68-.07-13.36,1.72,1,3.16,1.77,4.52,2.65a1.69,1.69,0,0,1,.49,1.19C1145.18,845.48,1145.18,846.89,1145.22,848.44Z" transform="translate(-1037.78 -737.28)"/><path class="cls-1" d="M1166.1,817,1178.46,795c1.06,1.83,1.94,3.29,2.74,4.8a1.34,1.34,0,0,1-.18,1c-4.28,7.63-8.57,15.25-13,23.07l-11.6-6.62c1.72-1,3.1-1.84,4.55-2.58a1.69,1.69,0,0,1,1.28.17C1163.53,815.54,1164.74,816.24,1166.1,817Z" transform="translate(-1037.78 -737.28)"/><path class="cls-1" d="M1144.63,781.48c-2.42.61-2.41.61-2.39,3.13.07,6,.16,12,.15,17.95a2.26,2.26,0,0,0,1.4,2.3c2.32,1.24,4.59,2.57,7.19,4-1.7,1-3.15,1.89-4.65,2.67-.28.14-.82-.08-1.17-.27-2.15-1.17-4.26-2.42-6.42-3.57a2.1,2.1,0,0,1-1.24-2.12q0-12.36-.17-24.73a10.63,10.63,0,0,1,0-1.13c.1-.9.05-2.48.36-2.56a17.66,17.66,0,0,1,4.06-.18c.14,0,.32.2.41.35C1143,778.71,1143.8,780.07,1144.63,781.48Z" transform="translate(-1037.78 -737.28)"/><path class="cls-1" d="M1108.45,784.19c-.69,2.4-.69,2.4,1.51,3.63,5.22,2.94,10.45,5.85,15.63,8.85a2.28,2.28,0,0,0,2.7-.06c2.22-1.39,4.51-2.69,7.08-4.21,0,2,.06,3.67,0,5.37,0,.3-.48.66-.82.87-2.09,1.27-4.23,2.47-6.3,3.77a2.1,2.1,0,0,1-2.46,0c-7.16-4.1-14.34-8.15-21.52-12.22-.32-.19-.67-.35-1-.57-.73-.53-2.13-1.29-2-1.59a17.14,17.14,0,0,1,1.87-3.6c.07-.12.34-.18.51-.18C1105.22,784.22,1106.81,784.21,1108.45,784.19Z" transform="translate(-1037.78 -737.28)"/><path class="cls-1" d="M1090.91,817.34c1.73,1.79,1.73,1.79,3.9.51,5.16-3.05,10.3-6.12,15.49-9.11a2.26,2.26,0,0,0,1.29-2.36c-.09-2.62-.07-5.26-.11-8.24,1.71,1,3.21,1.79,4.65,2.7.26.16.34.74.35,1.14,0,2.45,0,4.9.12,7.35a2.09,2.09,0,0,1-1.23,2.12Q1104.68,817.68,1094,824a9.43,9.43,0,0,1-1,.55c-.82.37-2.18,1.2-2.4,1a17.62,17.62,0,0,1-2.18-3.42.66.66,0,0,1,.1-.53C1089.32,820.15,1090.1,818.77,1090.91,817.34Z" transform="translate(-1037.78 -737.28)"/><path class="cls-1" d="M1112.18,847.79c2.42-.61,2.41-.61,2.39-3.13-.07-6-.16-12-.15-17.95a2.28,2.28,0,0,0-1.4-2.31c-2.32-1.23-4.59-2.56-7.19-4,1.7-1,3.15-1.89,4.66-2.67.27-.14.81.08,1.16.27,2.15,1.17,4.26,2.42,6.43,3.57a2.1,2.1,0,0,1,1.23,2.12q0,12.36.17,24.73a10.63,10.63,0,0,1,0,1.13c-.1.9,0,2.48-.36,2.56a17.63,17.63,0,0,1-4.06.18c-.14,0-.32-.2-.41-.35C1113.82,850.56,1113,849.2,1112.18,847.79Z" transform="translate(-1037.78 -737.28)"/><path class="cls-1" d="M1148.37,845.08c.68-2.4.68-2.4-1.52-3.63-5.22-2.94-10.45-5.85-15.63-8.85a2.26,2.26,0,0,0-2.69.06c-2.23,1.39-4.52,2.69-7.09,4.21,0-2-.06-3.67,0-5.37,0-.3.48-.66.82-.87,2.09-1.27,4.23-2.47,6.3-3.78a2.1,2.1,0,0,1,2.46,0c7.16,4.1,14.34,8.15,21.52,12.22.32.19.67.35,1,.57.73.53,2.13,1.29,2,1.59a17.14,17.14,0,0,1-1.87,3.6c-.07.12-.34.18-.51.18C1151.59,845.05,1150,845.06,1148.37,845.08Z" transform="translate(-1037.78 -737.28)"/><path class="cls-1" d="M1165.9,811.93c-1.73-1.79-1.73-1.79-3.9-.51-5.16,3.05-10.3,6.12-15.48,9.11a2.27,2.27,0,0,0-1.3,2.36c.09,2.62.08,5.25.11,8.24-1.71-1-3.21-1.79-4.65-2.7-.25-.16-.34-.74-.34-1.14-.06-2.45,0-4.9-.12-7.35a2.09,2.09,0,0,1,1.22-2.12q10.69-6.23,21.35-12.52a9.43,9.43,0,0,1,1-.55c.82-.37,2.18-1.2,2.4-1a17.16,17.16,0,0,1,2.18,3.42.66.66,0,0,1-.1.53C1167.49,809.12,1166.71,810.5,1165.9,811.93Z" transform="translate(-1037.78 -737.28)"/><path class="cls-1" d="M1124.26,758.3c.83-1.47,1.53-2.81,2.34-4.07a1.72,1.72,0,0,1,1.24-.67q12.86-.1,25.71-.1a1.3,1.3,0,0,1,1,.37c.88,1.36,1.68,2.78,2.69,4.47Z" transform="translate(-1037.78 -737.28)"/><path class="cls-1" d="M1077.52,790.06c-.87-1.46-1.68-2.73-2.36-4.07a1.71,1.71,0,0,1,0-1.4q6.35-11.18,12.77-22.3a1.35,1.35,0,0,1,.81-.66c1.62-.08,3.25-.06,5.22-.09Z" transform="translate(-1037.78 -737.28)"/><path class="cls-1" d="M1081.66,846.39c-1.7,0-3.2.08-4.7,0a1.73,1.73,0,0,1-1.2-.72q-6.51-11.08-12.94-22.21a1.27,1.27,0,0,1-.16-1c.74-1.45,1.56-2.85,2.53-4.57Z" transform="translate(-1037.78 -737.28)"/><path class="cls-1" d="M1132.55,871c-.83,1.47-1.53,2.81-2.34,4.06a1.69,1.69,0,0,1-1.23.68q-12.86.1-25.72.1a1.31,1.31,0,0,1-1-.37c-.88-1.36-1.68-2.78-2.69-4.47Z" transform="translate(-1037.78 -737.28)"/><path class="cls-1" d="M1179.3,839.21c.86,1.46,1.67,2.73,2.35,4.06a1.73,1.73,0,0,1,0,1.41q-6.34,11.18-12.77,22.3a1.35,1.35,0,0,1-.81.66c-1.62.08-3.24.06-5.22.09Z" transform="translate(-1037.78 -737.28)"/><path class="cls-1" d="M1175.15,782.88c1.7,0,3.2-.08,4.7,0a1.78,1.78,0,0,1,1.2.73q6.51,11.08,12.94,22.21a1.28,1.28,0,0,1,.17,1c-.75,1.45-1.57,2.85-2.54,4.57Z" transform="translate(-1037.78 -737.28)"/><path class="cls-1" d="M1127,806.14a8.43,8.43,0,0,0-5.39,3.26c-.11-1.6-.07-3.2-.08-4.79,0-.41,0-.83.11-1.5C1123.54,804.21,1125.28,805.12,1127,806.14Z" transform="translate(-1037.78 -737.28)"/><path class="cls-1" d="M1134.81,808.64a1.77,1.77,0,0,0,0,.22,8.42,8.42,0,0,0-5.21-2.76c1.59-1,3.25-1.93,5.07-3,.06.6.11,1,.12,1.4A35.6,35.6,0,0,1,1134.81,808.64Z" transform="translate(-1037.78 -737.28)"/><path class="cls-1" d="M1136.5,817.6a8.4,8.4,0,0,0-.08-6.13.52.52,0,0,0,.13.06c1.74.83,3.4,1.88,5.32,3C1139.93,815.62,1138.24,816.68,1136.5,817.6Z" transform="translate(-1037.78 -737.28)"/><path class="cls-1" d="M1134.93,825.75c-1.72-1-3.31-1.72-4.77-2.66a8.52,8.52,0,0,0,4.74-2.81C1135,822,1134.93,823.76,1134.93,825.75Z" transform="translate(-1037.78 -737.28)"/><path class="cls-1" d="M1127,823.14c-1.63,1.06-3.34,2-5.2,3-.06-.55-.14-1-.14-1.37,0-1.61-.06-3.21,0-4.82A8.48,8.48,0,0,0,1127,823.14Z" transform="translate(-1037.78 -737.28)"/><path class="cls-1" d="M1119.77,814.64a8.34,8.34,0,0,0,.57,3c-1.76-.93-3.48-1.94-5.42-3,2-1.14,3.7-2.21,5.47-3.18A8.22,8.22,0,0,0,1119.77,814.64Z" transform="translate(-1037.78 -737.28)"/><polygon class="cls-2" points="177.88 77.25 133.59 154.05 44.94 154.09 0.58 77.33 44.87 0.54 133.52 0.5 177.88 77.25"/></svg>